<svg width="24" height="24" viewBox="0 0 24 24" fill="none" xmlns="http://www.w3.org/2000/svg">
<path d="M16.3594 2.02344V6.02344M8.35938 2.02344V6.02344" stroke="#4D4D4D" stroke-width="1.5" stroke-linecap="round" stroke-linejoin="round"/>
<path d="M13.3594 4.02344H11.3594C7.58814 4.02344 5.70252 4.02344 4.53094 5.19501C3.35937 6.36659 3.35938 8.2522 3.35938 12.0234V14.0234C3.35938 17.7946 3.35937 19.6803 4.53094 20.8518C5.70252 22.0234 7.58814 22.0234 11.3594 22.0234H13.3594C17.1306 22.0234 19.0163 22.0234 20.1878 20.8518C21.3594 19.6803 21.3594 17.7946 21.3594 14.0234V12.0234C21.3594 8.2522 21.3594 6.36659 20.1878 5.19501C19.0163 4.02344 17.1306 4.02344 13.3594 4.02344Z" stroke="#4D4D4D" stroke-width="1.5" stroke-linecap="round" stroke-linejoin="round"/>
<path d="M3.35938 10.0234H21.3594" stroke="#4D4D4D" stroke-width="1.5" stroke-linecap="round" stroke-linejoin="round"/>
<path d="M11.3594 14.0234H16.3594M8.35938 14.0234H8.36835M13.3594 18.0234H8.35938M16.3594 18.0234H16.3504" stroke="#4D4D4D" stroke-width="1.5" stroke-linecap="round" stroke-linejoin="round"/>
</svg>
