<svg width="32" height="32" viewBox="0 0 32 32" fill="none" xmlns="http://www.w3.org/2000/svg">
<path d="M3.33594 17.334L6.0026 18.6673" stroke="white" stroke-width="2" stroke-linecap="round" stroke-linejoin="round"/>
<path d="M28.6667 18L26 18.6667" stroke="white" stroke-width="2" stroke-linecap="round" stroke-linejoin="round"/>
<path d="M10.6641 24.6673L10.9916 23.8484C11.4787 22.6307 11.7223 22.0217 12.2302 21.6779C12.7381 21.334 13.3939 21.334 14.7055 21.334H17.2893C18.6009 21.334 19.2567 21.334 19.7646 21.6779C20.2725 22.0217 20.5161 22.6307 21.0031 23.8484L21.3307 24.6673" stroke="white" stroke-width="2" stroke-linecap="round" stroke-linejoin="round"/>
<path d="M2.66406 24V27.8427C2.66406 28.3476 2.98506 28.8093 3.49324 29.0352C3.82297 29.1817 4.1379 29.3333 4.51817 29.3333H6.80996C7.19022 29.3333 7.50516 29.1817 7.83489 29.0352C8.34306 28.8093 8.66406 28.3476 8.66406 27.8427V25.3333" stroke="white" stroke-width="2" stroke-linecap="round" stroke-linejoin="round"/>
<path d="M23.3359 25.3333V27.8427C23.3359 28.3476 23.657 28.8093 24.1651 29.0352C24.4949 29.1817 24.8098 29.3333 25.1901 29.3333H27.4818C27.8621 29.3333 28.177 29.1817 28.5067 29.0352C29.0149 28.8093 29.3359 28.3476 29.3359 27.8427V24" stroke="white" stroke-width="2" stroke-linecap="round" stroke-linejoin="round"/>
<path d="M26.6641 12.6667L27.9974 12" stroke="white" stroke-width="2" stroke-linecap="round" stroke-linejoin="round"/>
<path d="M5.33333 12.6667L4 12" stroke="white" stroke-width="2" stroke-linecap="round" stroke-linejoin="round"/>
<path d="M6 13.9993L7.45107 10.0089C8.03776 8.39552 8.33109 7.58883 9.02947 7.12743C9.72783 6.66602 10.6555 6.66602 12.5107 6.66602H19.4893C21.3445 6.66602 22.2721 6.66602 22.9705 7.12743C23.6689 7.58883 23.9623 8.39552 24.5489 10.0089L26 13.9993" stroke="white" stroke-width="2" stroke-linejoin="round"/>
<path d="M5.9974 14H25.9974C27.2737 15.2763 29.3307 17.0536 29.3307 19.0365V23.4069C29.3307 24.1253 28.8247 24.7299 28.1531 24.8139L23.9974 25.3333H7.9974L3.84161 24.8139C3.17013 24.7299 2.66406 24.1253 2.66406 23.4069V19.0365C2.66406 17.0536 4.72112 15.2763 5.9974 14Z" stroke="white" stroke-width="2" stroke-linejoin="round"/>
<path d="M13.3359 5.06602C13.3359 3.74054 14.0523 2.66602 14.9359 2.66602H16.0026H17.0693C17.9529 2.66602 18.6693 3.74054 18.6693 5.06602C18.6693 5.94967 18.1917 6.66602 17.6026 6.66602H14.4026C13.8135 6.66602 13.3359 5.94967 13.3359 5.06602Z" stroke="white" stroke-width="2" stroke-linejoin="round"/>
</svg>
