<svg width="32" height="32" viewBox="0 0 32 32" fill="none" xmlns="http://www.w3.org/2000/svg">
<path d="M2.66406 13.332L14.8075 3.74512C15.1463 3.47756 15.5655 3.33203 15.9974 3.33203C16.4293 3.33203 16.8485 3.47756 17.1873 3.74512L21.9974 7.54255V5.33203C21.9974 4.59566 22.5943 3.9987 23.3307 3.9987H24.6641C25.4005 3.9987 25.9974 4.59564 25.9974 5.33203V10.7005L29.3307 13.332" stroke="white" stroke-width="2" stroke-linecap="round" stroke-linejoin="round"/>
<path d="M26.6693 15.332V20.6654C26.6693 24.4366 26.6693 26.3222 25.4977 27.4938C24.3261 28.6654 22.4405 28.6654 18.6693 28.6654H13.3359C9.5647 28.6654 7.67908 28.6654 6.50751 27.4938C5.33594 26.3222 5.33594 24.4366 5.33594 20.6654V15.332" stroke="white" stroke-width="2" stroke-linecap="round" stroke-linejoin="round"/>
<path d="M20 20.668C18.934 21.4978 17.5336 22.0013 16 22.0013C14.4664 22.0013 13.066 21.4978 12 20.668" stroke="white" stroke-width="2" stroke-linecap="round" stroke-linejoin="round"/>
</svg>
