<svg width="24" height="24" viewBox="0 0 24 24" fill="none" xmlns="http://www.w3.org/2000/svg">
<path d="M7.35938 18.0234C5.53044 18.4351 4.35938 19.0677 4.35938 19.7771C4.35938 21.0177 7.94109 22.0234 12.3594 22.0234C16.7777 22.0234 20.3594 21.0177 20.3594 19.7771C20.3594 19.0677 19.1883 18.4351 17.3594 18.0234" stroke="#4D4D4D" stroke-width="1.5" stroke-linecap="round"/>
<path d="M14.8594 9.02344C14.8594 10.4041 13.7401 11.5234 12.3594 11.5234C10.9787 11.5234 9.85938 10.4041 9.85938 9.02344C9.85938 7.64273 10.9787 6.52344 12.3594 6.52344C13.7401 6.52344 14.8594 7.64273 14.8594 9.02344Z" stroke="#4D4D4D" stroke-width="1.5"/>
<path d="M13.6168 17.517C13.2795 17.8418 12.8287 18.0234 12.3596 18.0234C11.8904 18.0234 11.4396 17.8418 11.1023 17.517C8.01367 14.5242 3.87456 11.1809 5.89308 6.32717C6.98447 3.70276 9.60432 2.02344 12.3596 2.02344C15.1148 2.02344 17.7346 3.70277 18.826 6.32717C20.842 11.1748 16.713 14.5345 13.6168 17.517Z" stroke="#4D4D4D" stroke-width="1.5"/>
</svg>
