<svg width="26" height="29" viewBox="0 0 26 29" fill="none" xmlns="http://www.w3.org/2000/svg">
<path d="M2.63948 13.9744L7.06811 11.2787C7.81128 10.8271 8.18288 10.6013 8.43939 10.2915C9.54948 8.95109 8.57191 6.97126 8.73744 5.41248C8.90879 3.79894 10.4475 1.5921 11.9985 0.90793C12.4759 0.697357 13.0235 0.697357 13.5008 0.90793C15.0519 1.5921 16.5905 3.79894 16.7619 5.41248C16.9275 6.97126 15.9499 8.95109 17.06 10.2915C17.3164 10.6013 17.688 10.8271 18.4312 11.2787L22.8603 13.9743C24.2157 14.7992 24.7497 15.6797 24.7497 17.336C24.7497 18.2375 24.3508 18.4791 23.5464 18.2951L15.78 16.5181L15.4312 19.5699C15.3048 20.6764 15.2416 21.2297 15.4244 21.7364C15.8527 22.9233 17.3064 23.8955 18.1943 24.7588C18.6851 25.2359 19.2205 26.6079 18.6611 27.2317C18.3156 27.6171 17.7544 27.3043 17.3683 27.154L13.65 25.7079C13.2055 25.5349 12.9831 25.4485 12.7497 25.4485C12.5163 25.4485 12.2939 25.5349 11.8493 25.7079L8.13111 27.154C7.74491 27.3043 7.18377 27.6171 6.83832 27.2317C6.27879 26.6079 6.81432 25.2359 7.30503 24.7588C8.19292 23.8955 9.64672 22.9233 10.0749 21.7364C10.2577 21.2297 10.1945 20.6764 10.0681 19.5699L9.71936 16.5181L1.95344 18.2949C1.14868 18.4791 0.749747 18.2373 0.75 17.3355C0.75044 15.6795 1.28425 14.7993 2.63948 13.9744Z" stroke="white" stroke-width="1.5" stroke-linecap="round" stroke-linejoin="round"/>
</svg>
