<svg width="32" height="32" viewBox="0 0 32 32" fill="none" xmlns="http://www.w3.org/2000/svg">
<path d="M3.33594 17.3359L6.0026 18.6693" stroke="white" stroke-width="2" stroke-linecap="round" stroke-linejoin="round"/>
<path d="M28.6667 18L26 18.6667" stroke="white" stroke-width="2" stroke-linecap="round" stroke-linejoin="round"/>
<path d="M10.6641 24.6693L10.9916 23.8503C11.4787 22.6326 11.7223 22.0237 12.2302 21.6798C12.7381 21.3359 13.3939 21.3359 14.7055 21.3359H17.2893C18.6009 21.3359 19.2567 21.3359 19.7646 21.6798C20.2725 22.0237 20.5161 22.6326 21.0031 23.8503L21.3307 24.6693" stroke="white" stroke-width="2" stroke-linecap="round" stroke-linejoin="round"/>
<path d="M2.66406 24V27.8427C2.66406 28.3476 2.98506 28.8093 3.49324 29.0352C3.82297 29.1817 4.1379 29.3333 4.51817 29.3333H6.80996C7.19022 29.3333 7.50516 29.1817 7.83489 29.0352C8.34306 28.8093 8.66406 28.3476 8.66406 27.8427V25.3333" stroke="white" stroke-width="2" stroke-linecap="round" stroke-linejoin="round"/>
<path d="M23.3359 25.3333V27.8427C23.3359 28.3476 23.657 28.8093 24.1651 29.0352C24.4949 29.1817 24.8098 29.3333 25.1901 29.3333H27.4818C27.8621 29.3333 28.177 29.1817 28.5067 29.0352C29.0149 28.8093 29.3359 28.3476 29.3359 27.8427V24" stroke="white" stroke-width="2" stroke-linecap="round" stroke-linejoin="round"/>
<path d="M26.6641 12.6667L27.9974 12" stroke="white" stroke-width="2" stroke-linecap="round" stroke-linejoin="round"/>
<path d="M5.33333 12.6667L4 12" stroke="white" stroke-width="2" stroke-linecap="round" stroke-linejoin="round"/>
<path d="M6 14L7.45107 9.64679C8.03776 7.88673 8.33109 7.00671 9.02947 6.50336C9.72783 6 10.6555 6 12.5107 6H19.4893C21.3445 6 22.2721 6 22.9705 6.50336C23.6689 7.00671 23.9623 7.88673 24.5489 9.64679L26 14" stroke="white" stroke-width="2" stroke-linejoin="round"/>
<path d="M20.6693 5.9974C20.349 4.38864 20.1889 3.58424 19.8077 3.12416C19.4265 2.66406 18.9201 2.66406 17.9073 2.66406H14.0979C13.0851 2.66406 12.5788 2.66406 12.1976 3.12416C11.8163 3.58424 11.6562 4.38862 11.3359 5.9974" stroke="white" stroke-width="2" stroke-linejoin="round"/>
<path d="M5.9974 14H25.9974C27.2737 15.2763 29.3307 17.0536 29.3307 19.0365V23.4069C29.3307 24.1253 28.8247 24.7299 28.1531 24.8139L23.9974 25.3333H7.9974L3.84161 24.8139C3.17013 24.7299 2.66406 24.1253 2.66406 23.4069V19.0365C2.66406 17.0536 4.72112 15.2763 5.9974 14Z" stroke="white" stroke-width="2" stroke-linejoin="round"/>
</svg>
