<svg width="32" height="32" viewBox="0 0 32 32" fill="none" xmlns="http://www.w3.org/2000/svg">
<path d="M19.3359 6C19.3359 7.10457 18.4405 8 17.3359 8C16.2313 8 15.3359 7.10457 15.3359 6C15.3359 4.89543 16.2313 4 17.3359 4C18.4405 4 19.3359 4.89543 19.3359 6Z" stroke="white" stroke-width="2"/>
<path d="M25.3333 11.8535L18.6369 11.0546M18.6369 11.0546L16.2975 10.7755C15.2272 10.6478 14.6921 10.5839 14.2861 10.8583C13.88 11.1326 13.732 11.658 13.436 12.7087L12.5449 15.8714C12.0309 17.6959 11.7739 18.608 12.2559 19.1603C12.738 19.7126 13.662 19.5647 15.5101 19.2687L16.1869 19.1603M18.6369 11.0546L16.1869 19.1603M25.3333 27.9994L24.7251 23.3728C24.3871 20.8022 24.2181 19.5168 23.322 18.8391C22.4259 18.1614 21.1629 18.3635 18.6369 18.768L16.1869 19.1603" stroke="white" stroke-width="2" stroke-linecap="round" stroke-linejoin="round"/>
<path d="M13.3307 22.666L12.5937 24.1401C12.2066 24.9143 11.5789 25.5419 10.8048 25.929L6.66406 27.9993" stroke="white" stroke-width="2" stroke-linecap="round" stroke-linejoin="round"/>
</svg>
